<svg xmlns="http://www.w3.org/2000/svg" version="1.1" xmlns:xlink="http://www.w3.org/1999/xlink" width="1000" height="1000"><g clip-path="url(#SvgjsClipPath2755)"><rect width="1000" height="1000" fill="#716c6c"></rect><g transform="matrix(7.0588235294117645,0,0,7.0588235294117645,200,380)"><svg xmlns="http://www.w3.org/2000/svg" version="1.1" xmlns:xlink="http://www.w3.org/1999/xlink" width="85" height="34"><svg width="85" height="34" viewBox="0 0 85 34" fill="none" xmlns="http://www.w3.org/2000/svg">
<path d="M0.944 34L16.784 0.159998H23.984L39.92 34H31.04L26.96 24.688L30.368 27.136H10.496L13.856 24.688L9.824 34H0.944ZM20.336 9.28L14.72 22.672L13.376 20.416H27.44L26.24 22.672L20.576 9.28H20.336ZM42.0106 34V0.159998H50.8906V14.656H50.9866L63.9466 0.159998H74.3146L57.8986 17.968V14.464L75.2266 34H64.5226L50.9866 18.736H50.8906V34H42.0106Z" fill="#FFF8D4"></path>
<path d="M75.5953 34V25.264H84.4753V34H75.5953Z" fill="#263D55"></path>
</svg></svg></g></g><defs><clipPath id="SvgjsClipPath2755"><rect width="1000" height="1000" x="0" y="0" rx="500" ry="500"></rect></clipPath></defs></svg>